<svg width="20" height="22" viewBox="0 0 20 22" fill="none" xmlns="http://www.w3.org/2000/svg">
<path fill-rule="evenodd" clip-rule="evenodd" d="M17 2H18C19.1 2 20 2.9 20 4V20C20 21.1 19.1 22 18 22H2C0.9 22 0 21.1 0 20V4C0 2.9 0.9 2 2 2H3V0H5V2H15V0H17V2ZM2 20H18V7H2V20Z" fill="#737373"/>
<rect x="4" y="10" width="2" height="2" fill="#737373"/>
<rect x="4" y="14" width="2" height="2" fill="#737373"/>
<rect x="9" y="10" width="2" height="2" fill="#737373"/>
<rect x="9" y="14" width="2" height="2" fill="#737373"/>
<rect x="14" y="10" width="2" height="2" fill="#737373"/>
<rect x="14" y="14" width="2" height="2" fill="#737373"/>
</svg>
