<svg width="48" height="37" viewBox="0 0 48 37" fill="none" xmlns="http://www.w3.org/2000/svg">
<path d="M14.5221 36.7958V34.3457C14.5365 34.1402 14.5065 33.934 14.4342 33.7409C14.3619 33.5477 14.2488 33.3721 14.1026 33.2256C13.9564 33.0792 13.7804 32.9653 13.5863 32.8916C13.3922 32.8179 13.1844 32.786 12.9769 32.7981C12.7046 32.7804 12.4325 32.8355 12.1889 32.9576C11.9454 33.0797 11.7394 33.2644 11.5925 33.4923C11.4585 33.2712 11.2669 33.09 11.0377 32.9678C10.8086 32.8457 10.5504 32.787 10.2905 32.7981C10.0638 32.7868 9.83816 32.8343 9.6358 32.936C9.43343 33.0377 9.2614 33.1901 9.13675 33.378V32.8961H8.27972V36.7958H9.145V34.6357C9.12583 34.502 9.13686 34.3659 9.17731 34.237C9.21777 34.1081 9.28663 33.9897 9.37891 33.8905C9.47118 33.7912 9.58457 33.7135 9.71087 33.663C9.83716 33.6125 9.97321 33.5905 10.1092 33.5985C10.6778 33.5985 10.9662 33.966 10.9662 34.6275V36.7958H11.8315V34.6357C11.8138 34.5023 11.8259 34.3667 11.8669 34.2385C11.908 34.1103 11.9769 33.9926 12.0688 33.8936C12.1608 33.7947 12.2735 33.717 12.3991 33.666C12.5247 33.615 12.6601 33.5919 12.7956 33.5985C13.3807 33.5985 13.6609 33.966 13.6609 34.6275V36.7958H14.5221ZM19.3429 34.848V32.9002H18.4776V33.3739C18.3323 33.188 18.1443 33.0392 17.9293 32.9398C17.7144 32.8404 17.4786 32.7932 17.2415 32.8022C16.6951 32.8022 16.1711 33.0173 15.7847 33.4002C15.3984 33.7831 15.1813 34.3024 15.1813 34.8439C15.1813 35.3854 15.3984 35.9047 15.7847 36.2876C16.1711 36.6705 16.6951 36.8857 17.2415 36.8857C17.4786 36.8947 17.7144 36.8475 17.9293 36.7481C18.1443 36.6486 18.3323 36.4998 18.4776 36.314V36.7877H19.3346L19.3429 34.848ZM16.1578 34.848C16.1715 34.6182 16.2527 34.3974 16.3914 34.2128C16.5301 34.0281 16.7202 33.8877 16.9384 33.8088C17.1566 33.7299 17.3933 33.716 17.6194 33.7687C17.8455 33.8215 18.0511 33.9386 18.2109 34.1057C18.3706 34.2727 18.4776 34.4825 18.5186 34.709C18.5596 34.9356 18.5329 35.1691 18.4417 35.3808C18.3505 35.5925 18.1988 35.7732 18.0053 35.9005C17.8118 36.0279 17.585 36.0963 17.3527 36.0975C17.1887 36.1014 17.0257 36.0712 16.8742 36.009C16.7226 35.9468 16.5858 35.8539 16.4726 35.7363C16.3593 35.6186 16.2721 35.4789 16.2165 35.3259C16.1609 35.173 16.1381 35.0102 16.1496 34.848H16.1578ZM37.6537 32.8063C37.9359 32.8055 38.2156 32.8582 38.4778 32.9614C38.7281 33.0608 38.9563 33.2078 39.1494 33.3943C39.3401 33.5791 39.4914 33.7998 39.5944 34.0436C39.8097 34.5671 39.8097 35.1534 39.5944 35.6769C39.4915 35.9207 39.3401 36.1415 39.1494 36.3262C38.9563 36.5127 38.7281 36.6597 38.4778 36.7591C37.9345 36.9683 37.3318 36.9683 36.7885 36.7591C36.5393 36.6598 36.3125 36.5127 36.121 36.3262C35.9321 36.1408 35.7823 35.9201 35.6801 35.6769C35.4653 35.1533 35.4653 34.5672 35.6801 34.0436C35.7823 33.8004 35.9321 33.5797 36.121 33.3943C36.3125 33.2078 36.5393 33.0607 36.7885 32.9614C37.0601 32.8499 37.3514 32.7929 37.6455 32.794L37.6537 32.8063ZM37.6537 33.623C37.4859 33.6207 37.3193 33.6512 37.1634 33.7128C37.0166 33.7711 36.8833 33.8587 36.772 33.9701C36.6584 34.0873 36.57 34.2262 36.5124 34.3784C36.3865 34.7044 36.3865 35.0651 36.5124 35.3911C36.5699 35.5433 36.6583 35.6823 36.772 35.7995C36.8833 35.9109 37.0165 35.9985 37.1634 36.0567C37.4773 36.1785 37.826 36.1785 38.1399 36.0567C38.2939 36.0003 38.4342 35.9127 38.552 35.7995C38.6659 35.6824 38.7542 35.5434 38.8116 35.3911C38.9374 35.0651 38.9374 34.7044 38.8116 34.3784C38.7542 34.2261 38.6659 34.0871 38.552 33.9701C38.4342 33.8568 38.2939 33.7692 38.1399 33.7128C37.9845 33.6423 37.8164 33.6034 37.6455 33.5985L37.6537 33.623ZM23.9989 34.848C23.9989 33.623 23.2325 32.8063 22.1324 32.8063C21.586 32.8138 21.065 33.0362 20.684 33.4245C20.3031 33.8128 20.0934 34.3351 20.101 34.8766C20.1087 35.4181 20.3331 35.9344 20.7248 36.3119C21.1166 36.6895 21.6436 36.8973 22.19 36.8897C22.7766 36.9096 23.3501 36.7148 23.8011 36.3426L23.3891 35.7137C23.0637 35.9723 22.6606 36.116 22.2436 36.122C21.9603 36.1462 21.6787 36.0599 21.4586 35.8814C21.2386 35.703 21.0974 35.4465 21.0652 35.1665H23.9865C23.9989 35.0644 23.9989 34.9623 23.9989 34.848ZM21.0693 34.505C21.0852 34.2458 21.2018 34.0027 21.3946 33.8268C21.5875 33.651 21.8415 33.556 22.1035 33.5617C22.2318 33.559 22.3593 33.5814 22.4788 33.6275C22.5983 33.6737 22.7075 33.7427 22.8001 33.8307C22.8927 33.9186 22.9669 34.0238 23.0185 34.1402C23.07 34.2566 23.098 34.382 23.1006 34.5091L21.0693 34.505ZM27.6042 33.8925C27.2279 33.6777 26.8023 33.5624 26.3681 33.5576C25.8984 33.5576 25.6182 33.7291 25.6182 34.015C25.6182 34.3008 25.9148 34.3498 26.2857 34.3988L26.6977 34.456C27.5547 34.5785 28.0739 34.9378 28.0739 35.6239C28.0739 36.3099 27.4147 36.8979 26.2816 36.8979C25.6743 36.9139 25.0778 36.7364 24.5798 36.3916L24.9919 35.73C25.37 36.008 25.8315 36.1519 26.3022 36.1384C26.8872 36.1384 27.2004 35.9669 27.2004 35.6647C27.2004 35.4442 26.9779 35.3217 26.5082 35.2563L26.0961 35.1992C25.2144 35.0767 24.7364 34.6847 24.7364 34.0476C24.7364 33.2718 25.3792 32.7981 26.3846 32.7981C26.9473 32.7794 27.5035 32.9211 27.9874 33.2065L27.6042 33.8925ZM31.7245 33.672H30.3277V35.4319C30.3277 35.8403 30.4678 36.0853 30.8963 36.0853C31.1638 36.0765 31.4247 36.0007 31.6545 35.8648L31.9017 36.5917C31.5805 36.7903 31.2091 36.8951 30.8304 36.8938C29.8168 36.8938 29.4625 36.3548 29.4625 35.4483V33.672H28.6631V32.8961H29.4625V31.7119H30.3277V32.8961H31.7245V33.672ZM34.6871 32.7981C34.895 32.7989 35.1012 32.8348 35.2969 32.9043L35.0332 33.721C34.8629 33.6537 34.6809 33.6204 34.4975 33.623C33.9372 33.623 33.6735 33.9823 33.6735 34.6275V36.8122H32.8164V32.9124H33.6652V33.3861C33.7704 33.2071 33.9224 33.0595 34.1051 32.9588C34.2879 32.8582 34.4946 32.8084 34.7036 32.8144L34.6871 32.7981ZM40.6122 36.2282C40.6657 36.2276 40.7189 36.2373 40.7687 36.2568C40.816 36.2759 40.8594 36.3036 40.8965 36.3385C40.9327 36.3737 40.962 36.4152 40.983 36.461C41.0038 36.5087 41.0146 36.5601 41.0146 36.6121C41.0146 36.664 41.0038 36.7155 40.983 36.7632C40.962 36.8089 40.9327 36.8505 40.8965 36.8857C40.8594 36.9205 40.816 36.9482 40.7687 36.9673C40.7194 36.9889 40.6661 37 40.6122 37C40.534 36.9994 40.4577 36.9768 40.3921 36.9349C40.3264 36.893 40.2741 36.8334 40.2413 36.7632C40.2207 36.7154 40.21 36.664 40.21 36.6121C40.21 36.5601 40.2207 36.5087 40.2413 36.461C40.2623 36.4152 40.2916 36.3737 40.3278 36.3385C40.3649 36.3036 40.4083 36.2759 40.4556 36.2568C40.4989 36.2397 40.5449 36.23 40.5915 36.2282H40.6122ZM40.6122 36.9183C40.6533 36.9186 40.694 36.9102 40.7316 36.8938C40.7671 36.8781 40.7992 36.856 40.8264 36.8285C40.8613 36.7936 40.8872 36.7508 40.9017 36.7038C40.9161 36.6568 40.9188 36.607 40.9095 36.5587C40.9002 36.5104 40.8791 36.4651 40.8481 36.4268C40.8171 36.3884 40.7771 36.3581 40.7316 36.3385C40.6939 36.3222 40.6533 36.3138 40.6122 36.314C40.5711 36.3142 40.5304 36.3225 40.4927 36.3385C40.4556 36.3535 40.422 36.3757 40.3938 36.4038C40.3422 36.4595 40.3136 36.5324 40.3136 36.608C40.3136 36.6836 40.3422 36.7564 40.3938 36.8122C40.4223 36.8408 40.4563 36.8635 40.4938 36.8789C40.5313 36.8943 40.5715 36.9022 40.6122 36.902V36.9183ZM40.6369 36.4324C40.6753 36.4305 40.7132 36.4421 40.744 36.4651C40.7566 36.4754 40.7666 36.4886 40.773 36.5035C40.7794 36.5184 40.7822 36.5346 40.7811 36.5508C40.7817 36.5644 40.7794 36.5779 40.7744 36.5906C40.7695 36.6032 40.7619 36.6147 40.7522 36.6243C40.7284 36.6458 40.6979 36.6588 40.6657 36.6611L40.7852 36.7958H40.6904L40.5792 36.6611H40.5421V36.7958H40.4638V36.4201L40.6369 36.4324ZM40.5462 36.5018V36.5998H40.6369C40.653 36.6046 40.6702 36.6046 40.6863 36.5998C40.6892 36.5941 40.6907 36.5878 40.6907 36.5814C40.6907 36.5751 40.6892 36.5688 40.6863 36.5631C40.6892 36.5574 40.6907 36.5511 40.6907 36.5447C40.6907 36.5383 40.6892 36.532 40.6863 36.5263C40.6702 36.5215 40.653 36.5215 40.6369 36.5263L40.5462 36.5018Z" fill="#919191"/>
<path d="M30.4885 3.14404H17.5094V26.2606H30.4885V3.14404Z" fill="#919191"/>
<path d="M18.3334 14.7045C18.331 12.4779 18.8399 10.2799 19.8214 8.27707C20.803 6.2742 22.2315 4.51894 23.9989 3.14419C21.8106 1.43984 19.1827 0.380005 16.4154 0.0858159C13.6481 -0.208373 10.8531 0.274947 8.34984 1.48055C5.8466 2.68615 3.73611 4.56539 2.25957 6.90348C0.783027 9.24157 0 11.9442 0 14.7024C0 17.4607 0.783027 20.1633 2.25957 22.5014C3.73611 24.8395 5.8466 26.7187 8.34984 27.9243C10.8531 29.1299 13.6481 29.6133 16.4154 29.3191C19.1827 29.0249 21.8106 27.9651 23.9989 26.2607C22.2321 24.8864 20.8039 23.1318 19.8223 21.1297C18.8408 19.1276 18.3316 16.9304 18.3334 14.7045Z" fill="#ABABAB"/>
<path d="M47.9958 14.7042C47.9952 17.462 47.2118 20.1639 45.7352 22.5014C44.2586 24.8388 42.1483 26.7175 39.6455 27.9228C37.1427 29.1281 34.3482 29.6114 31.5814 29.3174C28.8146 29.0235 26.187 27.9641 23.9989 26.2605C25.765 24.8849 27.1928 23.1298 28.1746 21.1276C29.1564 19.1254 29.6666 16.9283 29.6666 14.7022C29.6666 12.4761 29.1564 10.279 28.1746 8.27679C27.1928 6.27457 25.765 4.51948 23.9989 3.14394C26.187 1.43906 28.815 0.378703 31.5824 0.0840913C34.3499 -0.21052 37.1452 0.272497 39.6487 1.47793C42.1523 2.68336 44.2631 4.56255 45.7399 6.90072C47.2167 9.23889 47.9999 11.9417 48 14.7002L47.9958 14.7042Z" fill="#ABABAB"/>
</svg>
