<svg width="78" height="22" viewBox="0 0 78 22" fill="none" xmlns="http://www.w3.org/2000/svg">
<path d="M64.3254 3.40475C62.2651 3.40475 60.6359 3.95506 59.3894 4.20633L59.0064 7.36066C59.6295 7.05909 61.5943 6.51026 63.2238 6.45828C64.854 6.40861 65.8117 6.759 65.4763 8.16139C60.6367 8.16139 57.377 9.16142 56.7062 12.316C55.7469 17.7233 61.6422 17.5737 63.9908 15.2201L63.7039 16.5208H68.0168L69.8855 7.90865C70.6504 4.25515 67.3448 3.35508 64.3254 3.40475ZM64.6131 12.216C64.3739 13.3671 63.4639 13.868 62.3614 13.9191C61.4029 13.9688 60.5404 13.1159 61.1637 12.1152C61.643 11.2648 62.9853 11.0647 63.7992 11.0647C64.1346 11.0647 64.5185 11.0647 64.8547 11.0647C64.7569 11.4649 64.7084 11.8153 64.6131 12.216Z" fill="#C5C5C5"/>
<path d="M73.5747 0L70.0062 16.5217H74.387L78 0H73.5747Z" fill="#C5C5C5"/>
<path d="M53.4457 0.0498047H45.4246L41.8702 16.5212H46.5285L47.7302 11.0644H51.0438C54.3104 11.0644 57 9.06203 57.7201 5.65706C58.5371 1.80195 55.7513 0.0498047 53.4457 0.0498047ZM53.3034 5.65706C53.0148 6.90836 51.7655 7.90901 50.5638 7.90901H48.4028L49.3638 3.40343H51.6688C52.8702 3.40427 53.5903 4.40514 53.3034 5.65706Z" fill="#C5C5C5"/>
<path d="M22.3206 3.40475C20.2845 3.40475 18.6747 3.95506 17.4902 4.20633L17.1132 7.36003C17.6816 7.05846 19.6221 6.50963 21.2321 6.45765C22.8419 6.40798 23.7889 6.75837 23.5035 8.16076C18.7232 8.16076 15.5043 9.16079 14.8412 12.3153C13.8936 17.7227 19.7162 17.573 21.989 15.2194L21.7058 16.5202H26.0139L27.8598 7.90802C28.6162 4.25515 25.302 3.35508 22.3206 3.40475ZM22.6522 12.216C22.4146 13.3671 21.4668 13.868 20.38 13.9191C19.4332 13.9688 18.6279 13.1159 19.2439 12.1152C19.7162 11.2648 21.0422 11.0647 21.7999 11.0647C22.1791 11.0647 22.5099 11.0647 22.8898 11.0647C22.7928 11.4649 22.699 11.8153 22.6522 12.216Z" fill="#989898"/>
<path d="M29.7357 3.64258H34.0438L34.7389 11.313L38.9532 3.64258H43.3987L33.1634 21.9999H28.3472L31.4949 16.6038L29.7357 3.64258Z" fill="#989898"/>
<path d="M11.606 0.0498047H3.56373L0 16.5212H4.71925L5.87477 11.0644H9.24542C12.4721 11.0644 15.1689 9.06203 15.8912 5.65706C16.7099 1.80195 13.9657 0.0498047 11.606 0.0498047ZM11.4614 5.65706C11.1728 6.90836 9.96966 7.90901 8.76483 7.90901H6.5499L7.56167 3.40343H9.87292C11.0282 3.40427 11.7984 4.40514 11.4614 5.65706Z" fill="#989898"/>
</svg>
