<svg width="48" height="15" viewBox="0 0 48 15" fill="none" xmlns="http://www.w3.org/2000/svg">
<path d="M19.6201 0L17.2111 14.9699H21.0616L23.4691 0H19.6201ZM31.2346 6.09791C29.889 5.43437 29.0641 4.98653 29.0641 4.30787C29.0806 3.69082 29.7617 3.05865 31.2826 3.05865C32.5336 3.02727 33.4531 3.32085 34.1507 3.61295L34.5001 3.76869L35.0236 0.636603C34.263 0.343026 33.0571 0.0195491 31.5676 0.0195491C27.7651 0.0195491 25.0876 1.99376 25.071 4.81731C25.0396 6.90093 26.9879 8.05717 28.4461 8.75078C29.9356 9.4623 30.4426 9.92361 30.4426 10.5558C30.4262 11.5264 29.2382 11.9742 28.1297 11.9742C26.5938 11.9742 25.7687 11.7436 24.5162 11.2027L24.0092 10.9721L23.4707 14.227C24.3753 14.6286 26.0387 14.9819 27.7653 15C31.8063 15 34.4358 13.0557 34.4688 10.0465C34.482 8.39576 33.4546 7.13143 31.2346 6.09791ZM44.8951 0.0463279H41.916C40.998 0.0463279 40.3005 0.310005 39.903 1.2507L34.1834 14.9699H38.2244L39.3374 11.9997H43.8585L44.4359 14.9819H48L44.8951 0.0463279ZM40.4581 9.00214C40.536 9.00969 42.0091 4.15344 42.0091 4.15344L43.1821 9.00214C43.1821 9.00214 41.2186 9.00214 40.4581 9.00214ZM13.9936 0L10.2211 10.1707L9.81012 8.16494C9.11257 5.85066 6.92565 3.3358 4.48505 2.08658L7.93956 14.955H12.0137L18.0677 0.00164194H13.9936V0Z" fill="#8C8C8C"/>
<path d="M8.54104 1.93064C8.24705 0.789196 7.30947 0.0193581 6.03611 0.00292969H0.0615292L0 0.279913C4.66059 1.42728 8.57246 4.95775 9.84154 8.2786L8.54104 1.93064Z" fill="#8C8C8C"/>
</svg>
