<svg width="48" height="37" viewBox="0 0 48 37" fill="none" xmlns="http://www.w3.org/2000/svg">
<path d="M8.73297 36.7958V34.3457C8.74738 34.1397 8.71732 33.933 8.64479 33.7393C8.57225 33.5457 8.45892 33.3696 8.31233 33.2228C8.16574 33.0759 7.98926 32.9618 7.79465 32.8878C7.60004 32.8139 7.39178 32.7819 7.18372 32.794C6.91138 32.7763 6.63925 32.8314 6.39572 32.9535C6.1522 33.0756 5.94622 33.2603 5.79928 33.4882C5.66534 33.2671 5.47369 33.0859 5.24454 32.9638C5.01538 32.8416 4.75721 32.7829 4.49724 32.794C4.27063 32.7827 4.04496 32.8302 3.84259 32.9319C3.64023 33.0336 3.4682 33.186 3.34354 33.3739V32.892H2.48651V36.7958H3.35179V34.6479C3.33338 34.5144 3.34496 34.3785 3.3857 34.25C3.42644 34.1215 3.49532 34.0034 3.58744 33.9043C3.67956 33.8052 3.79262 33.7275 3.91856 33.6768C4.0445 33.626 4.18019 33.6035 4.31595 33.6107C4.88456 33.6107 5.17298 33.9782 5.17298 34.6397V36.8122H6.03826V34.6479C6.02061 34.5146 6.03271 34.379 6.07373 34.2508C6.11474 34.1225 6.18367 34.0048 6.27562 33.9059C6.36758 33.807 6.48034 33.7293 6.60592 33.6782C6.73151 33.6272 6.86686 33.6042 7.00242 33.6107C7.58751 33.6107 7.8677 33.9782 7.8677 34.6397V36.8122L8.73297 36.7958ZM21.5349 32.892H20.1258V31.7078H19.2605V32.892H18.4776V33.6679H19.277V35.4646C19.277 36.3711 19.6313 36.9102 20.6449 36.9102C21.0236 36.9114 21.395 36.8067 21.7162 36.608L21.469 35.8811C21.2392 36.017 20.9783 36.0929 20.7109 36.1016C20.2988 36.1016 20.1422 35.8403 20.1422 35.4483V33.6679H21.5432L21.5349 32.892ZM28.8444 32.794C28.6355 32.7879 28.4287 32.8378 28.246 32.9384C28.0633 33.039 27.9113 33.1867 27.8061 33.3657V32.892H26.9573V36.7958H27.8144V34.6071C27.8144 33.9619 28.0945 33.6025 28.6384 33.6025C28.8217 33.6001 29.0037 33.6334 29.1741 33.7005L29.4378 32.8839C29.242 32.8145 29.0358 32.7786 28.828 32.7777L28.8444 32.794ZM17.7936 33.2024C17.3085 32.9165 16.7508 32.7748 16.1867 32.794C15.1896 32.794 14.5386 33.2677 14.5386 34.0436C14.5386 34.6806 15.0165 35.0726 15.8983 35.1951L16.3103 35.2523C16.78 35.3176 17.0025 35.4401 17.0025 35.6606C17.0025 35.9628 16.6894 36.1343 16.1043 36.1343C15.6337 36.1478 15.1721 36.004 14.794 35.726L14.382 36.3875C14.8812 36.7329 15.4792 36.9104 16.0878 36.8938C17.225 36.8938 17.8843 36.363 17.8843 35.6198C17.8843 34.8766 17.3651 34.5744 16.5081 34.4519L16.0961 34.3947C15.7252 34.3457 15.4286 34.2722 15.4286 34.0109C15.4286 33.7496 15.7087 33.5535 16.1785 33.5535C16.6126 33.5585 17.0382 33.6738 17.4146 33.8884L17.7936 33.2024ZM40.7482 32.794C40.5392 32.7879 40.3324 32.8378 40.1497 32.9384C39.967 33.039 39.815 33.1867 39.7098 33.3657V32.892H38.861V36.7958H39.7181V34.6071C39.7181 33.9619 39.9982 33.6025 40.5421 33.6025C40.7254 33.6001 40.9075 33.6334 41.0778 33.7005L41.3415 32.8839C41.1458 32.8145 40.9395 32.7786 40.7317 32.7777L40.7482 32.794ZM29.7056 34.8358C29.6954 35.1101 29.7431 35.3835 29.8457 35.6385C29.9482 35.8935 30.1033 36.1245 30.3011 36.3167C30.4989 36.5089 30.735 36.658 30.9943 36.7546C31.2536 36.8512 31.5304 36.893 31.807 36.8775C32.3216 36.9034 32.8273 36.7373 33.2244 36.412L32.8123 35.726C32.5161 35.9499 32.1548 36.073 31.7823 36.0771C31.4655 36.0517 31.1699 35.9091 30.9544 35.6775C30.739 35.446 30.6193 35.1426 30.6193 34.8276C30.6193 34.5126 30.739 34.2092 30.9544 33.9776C31.1699 33.7461 31.4655 33.6034 31.7823 33.578C32.1548 33.5822 32.5161 33.7053 32.8123 33.9292L33.2244 33.2432C32.8273 32.9178 32.3216 32.7517 31.807 32.7777C31.5304 32.7622 31.2536 32.804 30.9943 32.9006C30.735 32.9971 30.4989 33.1463 30.3011 33.3385C30.1033 33.5306 29.9482 33.7616 29.8457 34.0167C29.7431 34.2717 29.6954 34.5451 29.7056 34.8194V34.8358ZM37.7321 34.8358V32.892H36.875V33.3657C36.7295 33.1801 36.5415 33.0315 36.3266 32.9321C36.1116 32.8327 35.8759 32.7854 35.6389 32.794C35.0925 32.794 34.5685 33.0091 34.1821 33.392C33.7958 33.7749 33.5787 34.2943 33.5787 34.8358C33.5787 35.3773 33.7958 35.8966 34.1821 36.2795C34.5685 36.6624 35.0925 36.8775 35.6389 36.8775C35.8759 36.8862 36.1116 36.8388 36.3266 36.7394C36.5415 36.64 36.7295 36.4914 36.875 36.3058V36.7795H37.7321V34.8358ZM34.5429 34.8358C34.5566 34.606 34.6377 34.3852 34.7764 34.2005C34.9151 34.0159 35.1053 33.8754 35.3235 33.7966C35.5417 33.7177 35.7784 33.7037 36.0045 33.7565C36.2306 33.8092 36.4361 33.9263 36.5959 34.0934C36.7557 34.2605 36.8627 34.4702 36.9037 34.6968C36.9447 34.9234 36.918 35.1569 36.8268 35.3686C36.7356 35.5803 36.5839 35.7609 36.3904 35.8883C36.1969 36.0156 35.9701 36.0841 35.7378 36.0853C35.5747 36.0873 35.4128 36.0559 35.2626 35.993C35.1123 35.93 34.9767 35.837 34.8645 35.7196C34.7523 35.6022 34.6658 35.4631 34.6104 35.311C34.5551 35.1589 34.5321 34.9971 34.5429 34.8358ZM24.2008 32.794C23.6544 32.8016 23.1334 33.024 22.7525 33.4122C22.3715 33.8005 22.1618 34.3228 22.1695 34.8643C22.1771 35.4058 22.4015 35.9222 22.7933 36.2997C23.185 36.6772 23.7121 36.8851 24.2585 36.8775C24.8513 36.9076 25.4343 36.7185 25.8943 36.3466L25.4822 35.7178C25.1569 35.9764 24.7538 36.1201 24.3368 36.1261C24.0535 36.1503 23.7718 36.064 23.5518 35.8855C23.3317 35.7071 23.1906 35.4506 23.1583 35.1706H26.0838C26.0838 35.0644 26.0838 34.9583 26.0838 34.8439C26.0838 33.6189 25.3174 32.8022 24.2132 32.8022L24.2008 32.794ZM24.2008 33.5535C24.329 33.5508 24.4566 33.5732 24.5761 33.6193C24.6956 33.6655 24.8048 33.7345 24.8974 33.8225C24.99 33.9105 25.0642 34.0157 25.1158 34.1321C25.1673 34.2485 25.1952 34.3738 25.1979 34.5009H23.1377C23.1527 34.2388 23.2706 33.9929 23.4662 33.8158C23.6618 33.6387 23.9195 33.5446 24.1843 33.5535H24.2008ZM45.672 34.8439V31.324H44.8479V33.3657C44.7024 33.1801 44.5144 33.0315 44.2994 32.9321C44.0845 32.8327 43.8488 32.7854 43.6118 32.794C43.0654 32.794 42.5414 33.0091 42.155 33.392C41.7687 33.7749 41.5516 34.2943 41.5516 34.8358C41.5516 35.3773 41.7687 35.8966 42.155 36.2795C42.5414 36.6624 43.0654 36.8775 43.6118 36.8775C43.8488 36.8862 44.0845 36.8388 44.2994 36.7394C44.5144 36.64 44.7024 36.4914 44.8479 36.3058V36.7795H45.672V34.8439ZM47.1017 36.2282C47.1553 36.2276 47.2085 36.2373 47.2583 36.2568C47.3056 36.2759 47.349 36.3036 47.3861 36.3385C47.4223 36.3737 47.4516 36.4152 47.4726 36.461C47.4934 36.5087 47.5042 36.5601 47.5042 36.6121C47.5042 36.664 47.4934 36.7155 47.4726 36.7632C47.4516 36.8089 47.4223 36.8505 47.3861 36.8857C47.349 36.9205 47.3056 36.9482 47.2583 36.9673C47.209 36.9889 47.1557 37 47.1017 37C47.0236 36.9994 46.9473 36.9768 46.8816 36.9349C46.816 36.893 46.7637 36.8334 46.7309 36.7632C46.7103 36.7154 46.6997 36.664 46.6997 36.6121C46.6997 36.5601 46.7103 36.5087 46.7309 36.461C46.7519 36.4152 46.7812 36.3737 46.8174 36.3385C46.8545 36.3036 46.8979 36.2759 46.9452 36.2568C46.9988 36.2356 47.0564 36.2259 47.1141 36.2282H47.1017ZM47.1017 36.9183C47.1429 36.9186 47.1836 36.9102 47.2212 36.8938C47.2567 36.8781 47.2888 36.856 47.316 36.8285C47.3675 36.7728 47.3961 36.6999 47.3961 36.6243C47.3961 36.5487 47.3675 36.4759 47.316 36.4201C47.2889 36.3926 47.2567 36.3704 47.2212 36.3548C47.1835 36.3385 47.1429 36.3302 47.1017 36.3303C47.0607 36.3305 47.02 36.3389 46.9823 36.3548C46.9452 36.3699 46.9116 36.3921 46.8834 36.4201C46.8318 36.4759 46.8032 36.5487 46.8032 36.6243C46.8032 36.6999 46.8318 36.7728 46.8834 36.8285C46.9117 36.8565 46.9453 36.8787 46.9823 36.8938C47.0238 36.9116 47.0689 36.92 47.1141 36.9183H47.1017ZM47.1265 36.4324C47.1649 36.4305 47.2028 36.4421 47.2336 36.4651C47.2462 36.4754 47.2562 36.4886 47.2626 36.5035C47.2691 36.5184 47.2718 36.5346 47.2707 36.5508C47.2713 36.5644 47.269 36.5779 47.264 36.5906C47.2591 36.6032 47.2515 36.6147 47.2418 36.6243C47.218 36.6458 47.1875 36.6588 47.1553 36.6611L47.2748 36.7958H47.18L47.0688 36.6611H47.0317V36.7958H46.9534V36.4365L47.1265 36.4324ZM47.0358 36.5018V36.5998H47.1265C47.1426 36.6046 47.1598 36.6046 47.1759 36.5998C47.1788 36.5941 47.1803 36.5878 47.1803 36.5814C47.1803 36.5751 47.1788 36.5688 47.1759 36.5631C47.1788 36.5574 47.1803 36.5511 47.1803 36.5447C47.1803 36.5383 47.1788 36.532 47.1759 36.5263C47.1598 36.5215 47.1426 36.5215 47.1265 36.5263L47.0358 36.5018ZM42.5034 34.8439C42.5171 34.6141 42.5983 34.3933 42.737 34.2087C42.8757 34.024 43.0658 33.8836 43.284 33.8047C43.5022 33.7258 43.7389 33.7119 43.965 33.7646C44.1911 33.8174 44.3967 33.9345 44.5564 34.1016C44.7162 34.2687 44.8232 34.4784 44.8642 34.705C44.9052 34.9315 44.8785 35.165 44.7873 35.3767C44.6961 35.5884 44.5444 35.7691 44.3509 35.8964C44.1574 36.0238 43.9306 36.0923 43.6983 36.0935C43.5352 36.0955 43.3734 36.0641 43.2231 36.0011C43.0728 35.9382 42.9373 35.8451 42.825 35.7278C42.7128 35.6104 42.6263 35.4713 42.571 35.3192C42.5156 35.1671 42.4926 35.0053 42.5034 34.8439ZM13.5662 34.8439V32.892H12.7091V33.3657C12.5636 33.1801 12.3756 33.0315 12.1607 32.9321C11.9457 32.8327 11.71 32.7854 11.473 32.794C10.9266 32.794 10.4026 33.0091 10.0162 33.392C9.62989 33.7749 9.41283 34.2943 9.41283 34.8358C9.41283 35.3773 9.62989 35.8966 10.0162 36.2795C10.4026 36.6624 10.9266 36.8775 11.473 36.8775C11.71 36.8862 11.9457 36.8388 12.1607 36.7394C12.3756 36.64 12.5636 36.4914 12.7091 36.3058V36.7795H13.5662V34.8439ZM10.377 34.8439C10.3907 34.6141 10.4718 34.3933 10.6105 34.2087C10.7492 34.024 10.9394 33.8836 11.1576 33.8047C11.3758 33.7258 11.6125 33.7119 11.8386 33.7646C12.0647 33.8174 12.2702 33.9345 12.43 34.1016C12.5898 34.2687 12.6968 34.4784 12.7378 34.705C12.7788 34.9315 12.7521 35.165 12.6609 35.3767C12.5697 35.5884 12.418 35.7691 12.2245 35.8964C12.031 36.0238 11.8042 36.0923 11.5719 36.0935C11.4081 36.0967 11.2454 36.0661 11.0941 36.0036C10.9428 35.9412 10.8063 35.8483 10.6932 35.7308C10.58 35.6133 10.4928 35.4738 10.4369 35.3211C10.3811 35.1685 10.3579 35.006 10.3688 34.8439H10.377Z" fill="#919191"/>
<path d="M30.4885 3.14404H17.5093V26.2606H30.4885V3.14404Z" fill="#919191"/>
<path d="M18.3334 14.7048C18.331 12.4782 18.8399 10.2802 19.8214 8.27733C20.803 6.27446 22.2316 4.51919 23.9989 3.14444C21.8106 1.44009 19.1827 0.380249 16.4154 0.0860598C13.6481 -0.20813 10.8531 0.275197 8.34984 1.4808C5.8466 2.6864 3.7361 4.56564 2.25956 6.90374C0.783017 9.24184 0 11.9445 0 14.7027C0 17.461 0.783017 20.1636 2.25956 22.5017C3.7361 24.8398 5.8466 26.719 8.34984 27.9246C10.8531 29.1303 13.6481 29.6136 16.4154 29.3194C19.1827 29.0252 21.8106 27.9654 23.9989 26.261C22.2321 24.8867 20.8039 23.1321 19.8223 21.13C18.8408 19.1278 18.3316 16.9307 18.3334 14.7048Z" fill="#ABABAB"/>
<path d="M47.9999 14.7043C47.9998 17.4627 47.2167 20.1655 45.7399 22.5037C44.263 24.8419 42.1522 26.7211 39.6487 27.9265C37.1451 29.132 34.3499 29.615 31.5824 29.3204C28.8149 29.0257 26.1869 27.9654 23.9988 26.2605C25.7649 24.885 27.1928 23.1299 28.1746 21.1276C29.1564 19.1254 29.6665 16.9284 29.6665 14.7022C29.6665 12.4761 29.1564 10.279 28.1746 8.27681C27.1928 6.27458 25.7649 4.51949 23.9988 3.14394C26.1869 1.43906 28.8149 0.378704 31.5824 0.0840917C34.3499 -0.21052 37.1451 0.272495 39.6487 1.47793C42.1522 2.68336 44.263 4.56257 45.7399 6.90074C47.2167 9.23892 47.9998 11.9417 47.9999 14.7002V14.7043Z" fill="#D4D4D4"/>
</svg>
