<svg width="24" height="21" viewBox="0 0 24 21" fill="none" xmlns="http://www.w3.org/2000/svg">
<path fill-rule="evenodd" clip-rule="evenodd" d="M5.954 12.1437L0.423911 10.0694C-0.137769 9.8579 -0.142649 9.06099 0.417431 8.84391L23.1131 0.0450602C23.5942 -0.141946 24.0907 0.281672 23.9859 0.789467L19.913 20.4783C19.817 20.9431 19.2747 21.1539 18.8919 20.8743L13.332 16.8176C12.9943 16.5713 12.5341 16.5845 12.211 16.8491L9.1284 19.3745C8.77056 19.6686 8.23144 19.5048 8.09448 19.0617L5.954 12.1437ZM18.5574 4.34982L7.74952 11.0395C7.33528 11.2965 7.14024 11.7992 7.27408 12.2698L8.44264 16.3963C8.5256 16.6887 8.94792 16.6587 8.98816 16.3566L9.292 14.0937C9.34928 13.6676 9.55152 13.2751 9.86504 12.9818L18.7847 4.64938C18.9515 4.49389 18.7516 4.22994 18.5574 4.34982Z" fill="#B4B4B4"/>
</svg>
